<?xml version="1.0" standalone="no"?>
<!DOCTYPE svg PUBLIC "-//W3C//DTD SVG 20010904//EN"
 "http://www.w3.org/TR/2001/REC-SVG-20010904/DTD/svg10.dtd">
<svg version="1.0" xmlns="http://www.w3.org/2000/svg"
 width="640.000000pt" height="1280.000000pt" viewBox="0 0 640.000000 1280.000000"
 preserveAspectRatio="xMidYMid meet">
<g transform="translate(0.000000,1280.000000) scale(0.100000,-0.100000)"
fill="#000000" stroke="none">
<path d="M3051 12779 c-241 -45 -419 -137 -581 -301 -337 -340 -390 -890 -124
-1290 295 -444 882 -590 1352 -337 414 222 625 704 508 1160 -74 290 -263 527
-531 666 -97 50 -183 77 -328 103 -132 24 -161 24 -296 -1z"/>
<path d="M2299 10429 c-279 -41 -519 -161 -727 -363 -141 -137 -259 -302 -320
-449 -49 -117 -962 -3133 -975 -3219 -31 -210 57 -389 231 -475 74 -37 79 -38
186 -38 102 0 116 2 171 29 82 40 173 133 212 216 17 36 213 682 437 1435 223
754 411 1380 416 1393 9 21 15 22 120 22 106 0 110 -1 110 -21 0 -12 -137
-497 -304 -1078 -168 -581 -479 -1659 -691 -2396 -213 -737 -389 -1352 -392
-1367 l-5 -28 644 0 c488 0 647 -3 656 -12 9 -9 12 -429 12 -1830 0 -1288 3
-1832 11 -1870 27 -131 117 -251 229 -308 65 -33 193 -70 240 -70 45 0 177 37
240 67 66 32 156 121 189 187 53 109 51 10 51 1991 0 1012 4 1846 8 1853 7 9
44 12 153 10 l144 -3 5 -1860 c4 -1507 8 -1868 19 -1900 39 -120 128 -228 227
-278 60 -30 191 -67 239 -67 48 0 179 37 239 67 65 33 146 111 179 171 60 111
57 -4 57 1997 0 1411 3 1834 12 1843 9 9 169 12 661 12 613 0 648 1 643 18 -3
9 -66 226 -140 482 -125 430 -491 1691 -1042 3587 -123 425 -224 779 -224 787
0 14 18 16 120 16 103 0 121 -2 129 -17 5 -10 39 -119 76 -243 414 -1392 721
-2422 746 -2497 66 -199 181 -312 354 -344 209 -38 427 118 474 339 25 120 13
200 -72 477 -31 99 -236 772 -456 1495 -219 723 -409 1339 -420 1368 -117 295
-399 601 -688 746 -98 49 -161 72 -278 104 l-100 26 -875 2 c-481 1 -900 -2
-931 -7z"/>
</g>
</svg>
